<svg width="24" height="24" viewBox="0 0 24 24" fill="none" xmlns="http://www.w3.org/2000/svg">
<path fill-rule="evenodd" clip-rule="evenodd" d="M19.9999 8.00175C19.9999 8.00117 19.9999 8.00058 19.9999 8C19.9999 7.99994 19.9999 7.99988 19.9999 7.99982L21.875 5.97672C22.1806 5.64695 21.9057 5.11563 21.46 5.17458L19.1108 5.48528C18.3775 4.57926 17.2563 4 15.9999 4C13.7908 4 11.9999 5.79086 11.9999 8C11.9999 8.52744 12.102 9.03104 12.2875 9.49212C9.29113 9.42205 6.08285 8.82913 4.4608 5.6154C4.26009 5.21773 3.68469 5.1947 3.55692 5.62143C2.38319 9.54144 4.4488 14.6347 8.99973 16C7.86444 17.11 4.94607 17.4114 2.55785 17.1927C2.09312 17.1502 1.80137 17.6796 2.16075 17.9773C4.16328 19.6361 6.94066 20 9.49981 20C15.9991 20 20.4989 14.501 19.9999 8.00175Z" fill="white"/>
</svg>
