<svg width="112" height="112" viewBox="0 0 112 112" fill="none" xmlns="http://www.w3.org/2000/svg">
<rect width="111.111" height="111.111" rx="24.4444" fill="url(#paint0_radial_993_854)"/>
<g filter="url(#filter0_d_993_854)">
<path d="M74.5435 31.3116C75.0376 31.3116 75.5206 31.165 75.9315 30.8905C76.3423 30.6159 76.6625 30.2257 76.8515 29.7692C77.0406 29.3127 77.09 28.8103 76.9935 28.3257C76.897 27.8411 76.659 27.396 76.3096 27.0467C75.9601 26.6974 75.5149 26.4595 75.0302 26.3632C74.5456 26.267 74.0433 26.3166 73.5868 26.5058C73.1304 26.6951 72.7403 27.0154 72.4659 27.4263C72.1915 27.8373 72.0452 28.3204 72.0454 28.8145C72.0454 29.1425 72.11 29.4673 72.2356 29.7703C72.3611 30.0733 72.5452 30.3487 72.7771 30.5805C73.0091 30.8124 73.2845 30.9963 73.5876 31.1218C73.8907 31.2472 74.2155 31.3117 74.5435 31.3116Z" fill="white"/>
<path d="M52.6281 28.3696C53.1222 28.3696 53.6052 28.2231 54.0161 27.9485C54.4269 27.674 54.7471 27.2838 54.9361 26.8273C55.1252 26.3707 55.1746 25.8684 55.0781 25.3838C54.9816 24.8992 54.7436 24.454 54.3941 24.1047C54.0447 23.7554 53.5995 23.5176 53.1148 23.4213C52.6302 23.325 52.1278 23.3746 51.6714 23.5639C51.215 23.7531 50.8249 24.0734 50.5505 24.4844C50.2761 24.8953 50.1298 25.3784 50.13 25.8725C50.13 26.2005 50.1946 26.5253 50.3202 26.8284C50.4457 27.1314 50.6297 27.4067 50.8617 27.6386C51.0937 27.8705 51.3691 28.0544 51.6722 28.1798C51.9753 28.3052 52.3001 28.3697 52.6281 28.3696Z" fill="white"/>
<path d="M25.9068 46.5792C26.6396 46.5792 27.3567 46.3667 27.971 45.9673C28.5854 45.5678 29.0707 44.9987 29.3679 44.3289C29.6652 43.6591 29.7618 42.9175 29.6458 42.1939C29.5299 41.4703 29.2065 40.796 28.7148 40.2526L31.4817 35.1658C32.0218 35.0919 32.5228 34.8433 32.9084 34.4579C33.2939 34.0726 33.5428 33.5716 33.617 33.0316C33.6912 32.4915 33.5866 31.9421 33.3192 31.467C33.0519 30.992 32.6364 30.6175 32.1362 30.4007C31.6361 30.1839 31.0787 30.1367 30.5493 30.2663C30.0198 30.396 29.5473 30.6953 29.2039 31.1187C28.8605 31.542 28.665 32.0661 28.6474 32.6109C28.6297 33.1557 28.7908 33.6914 29.1061 34.1361L26.4371 39.0406C25.9227 38.9681 25.3989 39.0022 24.8983 39.1408C24.3977 39.2794 23.9309 39.5196 23.5271 39.8463C23.1232 40.173 22.791 40.5794 22.5509 41.04C22.3108 41.5007 22.1681 42.0058 22.1317 42.524C22.0952 43.0422 22.1657 43.5623 22.3389 44.0521C22.5121 44.5418 22.7842 44.9907 23.1383 45.3708C23.4924 45.7508 23.9209 46.054 24.3972 46.2613C24.8735 46.4687 25.3873 46.5758 25.9068 46.5761V46.5792Z" fill="white"/>
<path d="M21.2855 51.3911C20.7016 51.3911 20.1308 51.5642 19.6453 51.8886C19.1598 52.213 18.7814 52.6741 18.558 53.2135C18.3345 53.7529 18.2761 54.3465 18.39 54.9192C18.5039 55.4919 18.7851 56.0179 19.1979 56.4308C19.6108 56.8436 20.1368 57.1248 20.7095 57.2387C21.2822 57.3526 21.8758 57.2942 22.4152 57.0707C22.9547 56.8473 23.4157 56.4689 23.7401 55.9834C24.0645 55.4979 24.2377 54.9271 24.2377 54.3433C24.2377 53.5603 23.9266 52.8094 23.373 52.2557C22.8193 51.7021 22.0684 51.3911 21.2855 51.3911Z" fill="white"/>
<path d="M83.2828 59.9696C82.7864 59.9694 82.3012 60.1164 81.8883 60.392C81.4755 60.6676 81.1537 61.0595 80.9637 61.518C80.7736 61.9765 80.7237 62.4811 80.8204 62.968C80.9171 63.4548 81.1561 63.902 81.507 64.2531C81.8579 64.6041 82.305 64.8432 82.7918 64.9402C83.2786 65.0371 83.7832 64.9874 84.2418 64.7975C84.7004 64.6076 85.0924 64.286 85.3682 63.8733C85.644 63.4606 85.7912 62.9754 85.7912 62.479C85.7912 61.8137 85.5269 61.1755 85.0566 60.705C84.5862 60.2344 83.9482 59.9699 83.2828 59.9696Z" fill="white"/>
<path d="M83.6329 39.852C84.3103 39.8522 84.9726 39.6515 85.5359 39.2753C86.0993 38.8991 86.5384 38.3643 86.7978 37.7385C87.0572 37.1127 87.1251 36.4241 86.9931 35.7596C86.8611 35.0952 86.535 34.4849 86.056 34.0058C85.5771 33.5267 84.9669 33.2004 84.3025 33.0682C83.6381 32.936 82.9494 33.0037 82.3235 33.2629C81.6977 33.5221 81.1627 33.9611 80.7864 34.5243C80.41 35.0875 80.2091 35.7497 80.2091 36.4272C80.2091 37.3353 80.5698 38.2063 81.2118 38.8485C81.8539 39.4908 82.7248 39.8517 83.6329 39.852Z" fill="white"/>
<path d="M71.9507 59.3487C71.2733 59.3487 70.6112 59.5496 70.048 59.9259C69.4848 60.3022 69.0458 60.8371 68.7866 61.4629C68.5274 62.0887 68.4595 62.7773 68.5917 63.4417C68.7238 64.106 69.05 64.7163 69.529 65.1953C70.008 65.6742 70.6182 66.0004 71.2826 66.1326C71.9469 66.2647 72.6355 66.1969 73.2613 65.9377C73.8871 65.6785 74.422 65.2395 74.7984 64.6763C75.1747 64.1131 75.3756 63.4509 75.3756 62.7735C75.3756 61.8652 75.0147 60.9941 74.3724 60.3518C73.7302 59.7095 72.859 59.3487 71.9507 59.3487Z" fill="white"/>
<path d="M62.1322 46.5792C61.0784 46.5791 60.0488 46.8951 59.1765 47.4864C58.3041 48.0777 57.6292 48.917 57.239 49.896L45.6032 46.7769C45.5523 46.3063 45.4081 45.8505 45.179 45.4363C44.9498 45.0221 44.6404 44.6577 44.2687 44.3644C43.8971 44.0712 43.4707 43.855 43.0146 43.7285C42.5584 43.602 42.0816 43.5678 41.612 43.6277C41.1424 43.6877 40.6895 43.8407 40.2798 44.0778C39.87 44.3149 39.5117 44.6313 39.2257 45.0085C38.9397 45.3857 38.7318 45.8162 38.6141 46.2747C38.4964 46.7333 38.4714 47.2106 38.5404 47.679L35.1918 49.5819C34.5151 48.8033 33.5864 48.2871 32.5679 48.1235C31.5494 47.9599 30.5057 48.1592 29.6193 48.6868C28.7328 49.2143 28.0598 50.0365 27.7178 51.0097C27.3758 51.9829 27.3865 53.0454 27.7481 54.0115C28.1097 54.9776 28.7992 55.786 29.6962 56.2955C30.5931 56.805 31.6406 56.9833 32.6556 56.7991C33.6706 56.6149 34.5886 56.0801 35.2494 55.2879C35.9102 54.4958 36.2718 53.4967 36.2709 52.4651C36.2706 52.293 36.26 52.1211 36.239 51.9502L39.8111 49.9248C40.1853 50.2303 40.6179 50.4565 41.0824 50.5895C41.5469 50.7225 42.0337 50.7595 42.5129 50.6984C42.9922 50.6372 43.454 50.4791 43.8703 50.2337C44.2865 49.9883 44.6484 49.6607 44.9339 49.2709L56.9033 52.4785C57.0248 53.4858 57.4346 54.4366 58.0835 55.2165C58.7325 55.9964 59.5929 56.5722 60.5614 56.8748C61.5298 57.1773 62.565 57.1936 63.5425 56.9217C64.52 56.6498 65.3981 56.1014 66.0713 55.3423C66.7445 54.5832 67.1841 53.6458 67.3372 52.6428C67.4902 51.6398 67.3503 50.614 66.9342 49.6887C66.5181 48.7633 65.8436 47.9779 64.9917 47.4268C64.1398 46.8757 63.1468 46.5825 62.1322 46.5823V46.5792Z" fill="white"/>
<path d="M47.9407 59.3487C47.9407 58.7296 47.7571 58.1244 47.4132 57.6096C47.0692 57.0948 46.5803 56.6936 46.0083 56.4567C45.4363 56.2197 44.8069 56.1577 44.1997 56.2785C43.5925 56.3993 43.0347 56.6975 42.5969 57.1352C42.1591 57.573 41.861 58.1308 41.7402 58.738C41.6194 59.3453 41.6814 59.9747 41.9183 60.5467C42.1553 61.1187 42.5565 61.6075 43.0713 61.9515C43.586 62.2955 44.1913 62.4791 44.8104 62.4791C45.6406 62.4791 46.4368 62.1493 47.0239 61.5622C47.6109 60.9752 47.9407 60.1789 47.9407 59.3487Z" fill="white"/>
<path d="M51.8238 42.7928C52.7022 42.7927 53.5606 42.5297 54.2884 42.0377C55.0161 41.5458 55.5801 40.8473 55.9076 40.0322L65.4964 40.9589C65.8033 41.5425 66.2723 42.025 66.8469 42.3485C67.4215 42.672 68.0773 42.8227 68.7355 42.7824C69.3937 42.7422 70.0262 42.5127 70.5572 42.1216C71.0881 41.7305 71.4947 41.1944 71.7283 40.5778C71.9619 39.9611 72.0124 39.2901 71.8739 38.6455C71.7353 38.0008 71.4135 37.4098 70.9472 36.9436C70.4808 36.4774 69.8898 36.1558 69.245 36.0174C68.6003 35.879 67.9294 35.9298 67.3128 36.1635L64.9681 30.3013C65.4045 29.8139 65.6632 29.1933 65.7024 28.5402C65.7415 27.8872 65.5588 27.24 65.1838 26.704C64.8088 26.1679 64.2636 25.7743 63.6367 25.5871C63.0099 25.4 62.3381 25.4302 61.7306 25.673C61.1231 25.9157 60.6154 26.3567 60.2902 26.9243C59.9649 27.4919 59.841 28.1529 59.9387 28.7997C60.0364 29.4466 60.3499 30.0415 60.8283 30.4878C61.3067 30.934 61.9219 31.2054 62.574 31.2579L65.3275 38.1519C65.3028 38.2188 65.2781 38.2858 65.2575 38.3579L56.127 37.4723C55.9518 36.6601 55.5504 35.914 54.9691 35.3203C54.3879 34.7267 53.6504 34.3096 52.8421 34.1174C52.0337 33.9252 51.1875 33.9657 50.4012 34.2342C49.6149 34.5027 48.9207 34.9883 48.3987 35.6347C47.8768 36.2812 47.5485 37.0622 47.4517 37.8874C47.3549 38.7126 47.4937 39.5484 47.852 40.2981C48.2102 41.0477 48.7733 41.6807 49.4761 42.1238C50.179 42.567 50.9929 42.8021 51.8238 42.8021V42.7928Z" fill="white"/>
<path d="M88.8299 49.6406C88.0086 49.6409 87.2079 49.8971 86.5391 50.3736C85.8703 50.8501 85.3666 51.5232 85.0982 52.2993H79.8847C79.6598 51.8834 79.3309 51.5329 78.9301 51.282L79.2113 46.9057C79.7597 46.6482 80.2065 46.215 80.4808 45.6749C80.7552 45.1347 80.8413 44.5184 80.7257 43.9236C80.61 43.3289 80.2992 42.7898 79.8424 42.3918C79.3856 41.9938 78.809 41.7597 78.2041 41.7266C77.5991 41.6934 77.0004 41.8631 76.5029 42.2088C76.0053 42.5545 75.6374 43.0564 75.4575 43.635C75.2775 44.2135 75.2958 44.8355 75.5095 45.4024C75.7232 45.9694 76.1199 46.4487 76.637 46.7646L76.3559 51.1172C75.9637 51.2969 75.6199 51.5673 75.3528 51.9061C75.0858 52.2449 74.9032 52.6424 74.8201 53.0657C74.737 53.489 74.7558 53.926 74.8749 54.3406C74.9941 54.7552 75.2101 55.1355 75.5053 55.4501C75.8004 55.7648 76.1662 56.0046 76.5724 56.15C76.9785 56.2953 77.4134 56.342 77.8412 56.2861C78.2689 56.2301 78.6772 56.0733 79.0324 55.8284C79.3875 55.5835 79.6793 55.2576 79.8837 54.8777H85.0971C85.3339 55.563 85.7547 56.1698 86.3135 56.6316C86.8724 57.0935 87.5476 57.3926 88.2651 57.496C88.9827 57.5995 89.7149 57.5034 90.3814 57.2183C91.048 56.9331 91.6231 56.4699 92.0438 55.8795C92.4646 55.2891 92.7146 54.5942 92.7664 53.8711C92.8183 53.148 92.6701 52.4245 92.338 51.7801C92.0059 51.1356 91.5028 50.5951 90.8838 50.2177C90.2648 49.8403 89.5538 49.6406 88.8288 49.6406H88.8299Z" fill="white"/>
<path d="M90.0583 47.163C90.5962 47.163 91.1221 47.0034 91.5693 46.7046C92.0166 46.4057 92.3651 45.9809 92.5709 45.4839C92.7767 44.987 92.8305 44.4401 92.7255 43.9126C92.6205 43.385 92.3614 42.9004 91.981 42.5202C91.6005 42.1399 91.1159 41.8809 90.5883 41.7761C90.0607 41.6713 89.5138 41.7253 89.0169 41.9313C88.52 42.1373 88.0954 42.486 87.7967 42.9334C87.498 43.3807 87.3387 43.9066 87.3389 44.4445C87.3389 44.8016 87.4092 45.1552 87.5459 45.4851C87.6826 45.8149 87.8829 46.1147 88.1354 46.3671C88.388 46.6196 88.6878 46.8198 89.0177 46.9563C89.3477 47.0929 89.7013 47.1631 90.0583 47.163Z" fill="white"/>
<path d="M44.0144 31.9356C44.5523 31.9356 45.0781 31.7761 45.5254 31.4772C45.9726 31.1784 46.3212 30.7536 46.527 30.2566C46.7328 29.7596 46.7866 29.2128 46.6816 28.6852C46.5765 28.1576 46.3174 27.6731 45.937 27.2928C45.5566 26.9125 45.0719 26.6536 44.5443 26.5488C44.0167 26.444 43.4699 26.498 42.973 26.704C42.4761 26.9099 42.0514 27.2587 41.7527 27.706C41.454 28.1534 41.2947 28.6792 41.2949 29.2172C41.2949 29.5742 41.3653 29.9278 41.5019 30.2577C41.6386 30.5876 41.839 30.8873 42.0915 31.1398C42.344 31.3922 42.6438 31.5924 42.9738 31.729C43.3037 31.8655 43.6573 31.9357 44.0144 31.9356Z" fill="white"/>
<path d="M55.4073 62.7735C54.6629 62.7734 53.9296 62.9542 53.2706 63.3005C52.6116 63.6468 52.0467 64.1481 51.6246 64.7613C51.2024 65.3745 50.9357 66.0811 50.8474 66.8202C50.759 67.5594 50.8518 68.309 51.1175 69.0043L35.8592 80.5969L38.0309 72.977C38.4623 72.856 38.8637 72.6463 39.2096 72.3614C39.5554 72.0765 39.838 71.7226 40.0393 71.3223C40.2406 70.922 40.3562 70.4841 40.3787 70.0365C40.4012 69.589 40.3301 69.1417 40.17 68.7233C40.0098 68.3048 39.7642 67.9243 39.4487 67.6061C39.1332 67.2879 38.7548 67.0391 38.3377 66.8754C37.9206 66.7117 37.4739 66.6368 37.0262 66.6555C36.5785 66.6743 36.1397 66.7861 35.7377 66.984L31.7413 63.6673C31.9468 62.9565 31.9013 62.1966 31.6125 61.5154C31.3237 60.8342 30.8091 60.2732 30.1553 59.9268C29.5016 59.5803 28.7484 59.4695 28.0226 59.613C27.2967 59.7564 26.6423 60.1454 26.1695 60.7146C25.6967 61.2837 25.4343 61.9983 25.4263 62.7382C25.4184 63.478 25.6654 64.1981 26.1259 64.7772C26.5863 65.3564 27.2321 65.7594 27.9548 65.9184C28.6774 66.0775 29.4327 65.9829 30.0938 65.6506L34.0891 68.9673C33.8956 69.6372 33.9246 70.3518 34.1717 71.0039C34.4188 71.6559 34.8707 72.2102 35.4597 72.5836L33.2478 80.3498C32.5157 80.4135 31.8202 80.6982 31.2536 81.1662C30.6869 81.6341 30.2758 82.2632 30.0748 82.9701C29.8738 83.677 29.8924 84.4282 30.128 85.1243C30.3637 85.8204 30.8053 86.4285 31.3943 86.8679L31.2636 87.3271L31.6446 87.0378C32.2681 87.4275 32.9955 87.6184 33.7301 87.5849C34.4647 87.5514 35.1717 87.2952 35.7572 86.8504C36.3428 86.4056 36.7791 85.7931 37.0083 85.0943C37.2374 84.3956 37.2486 83.6437 37.0403 82.9385L52.6796 71.0566C53.2636 71.4881 53.9416 71.7751 54.6579 71.8938C55.3743 72.0125 56.1086 71.9596 56.8005 71.7394C57.4925 71.5193 58.1224 71.1382 58.6385 70.6274C59.1545 70.1166 59.5421 69.4906 59.7694 68.801C59.9966 68.1114 60.0571 67.3776 59.9458 66.6601C59.8344 65.9426 59.5545 65.2616 59.129 64.6733C58.7035 64.0849 58.1445 63.6058 57.4979 63.2754C56.8513 62.945 56.1355 62.7726 55.4094 62.7725L55.4073 62.7735Z" fill="white"/>
</g>
<defs>
<filter id="filter0_d_993_854" x="6.66658" y="12.2623" width="97.7779" height="87.5485" filterUnits="userSpaceOnUse" color-interpolation-filters="sRGB">
<feFlood flood-opacity="0" result="BackgroundImageFix"/>
<feColorMatrix in="SourceAlpha" type="matrix" values="0 0 0 0 0 0 0 0 0 0 0 0 0 0 0 0 0 0 127 0" result="hardAlpha"/>
<feOffset dy="0.555556"/>
<feGaussianBlur stdDeviation="5.83333"/>
<feComposite in2="hardAlpha" operator="out"/>
<feColorMatrix type="matrix" values="0 0 0 0 0 0 0 0 0 0 0 0 0 0 0 0 0 0 0.15 0"/>
<feBlend mode="normal" in2="BackgroundImageFix" result="effect1_dropShadow_993_854"/>
<feBlend mode="normal" in="SourceGraphic" in2="effect1_dropShadow_993_854" result="shape"/>
</filter>
<radialGradient id="paint0_radial_993_854" cx="0" cy="0" r="1" gradientUnits="userSpaceOnUse" gradientTransform="rotate(42.5364) scale(150.792)">
<stop stop-color="#36E7F2"/>
<stop offset="1" stop-color="#0E4FB1"/>
</radialGradient>
</defs>
</svg>
